HIERARCHY
ROOT root
{
	OFFSET	0	13.1	24.9
	CHANNELS 6  Xposition Yposition Zposition Xrotation Yrotation Zrotation
	JOINT spine_1
	{
		OFFSET	0	9.99999	0
		CHANNELS 3  Xrotation Yrotation Zrotation
		JOINT spine_2
		{
			OFFSET	0	112	-10
			CHANNELS 3  Xrotation Yrotation Zrotation
			JOINT spine_3
			{
				OFFSET	0	206.5	19.3
				CHANNELS 3  Xrotation Yrotation Zrotation
				JOINT spine_4
				{
					OFFSET	0	110.4	14.6
					CHANNELS 3  Xrotation Yrotation Zrotation
					JOINT neck_1
					{
						OFFSET	0	71.8	-50.3
						CHANNELS 3  Xrotation Yrotation Zrotation
						JOINT neck_2
						{
							OFFSET	0	86.2	-25.8
							CHANNELS 3  Xrotation Yrotation Zrotation
							JOINT head_ee
							{
								OFFSET	0	179.8	-8.7
								CHANNELS 3  Xrotation Yrotation Zrotation
								End Site
								{
									OFFSET	1	0	0
								}
							}
						}
					}
					JOINT left_clavicle
					{
						OFFSET	-43.2	22.4	-70.8
						CHANNELS 3  Xrotation Yrotation Zrotation
						JOINT left_shoulder
						{
							OFFSET	-93.9	-5.79999	48.7
							CHANNELS 3  Xrotation Yrotation Zrotation
							JOINT left_elbow
							{
								OFFSET	-291.4	-30.8	15.2
								CHANNELS 3  Xrotation Yrotation Zrotation
								JOINT left_lowarm_twist
								{
									OFFSET	-110.7	-3.89999	13.6
									CHANNELS 3  Xrotation Yrotation Zrotation
									JOINT left_hand
									{
										OFFSET	-110.7	-3.89999	13.6
										CHANNELS 3  Xrotation Yrotation Zrotation
										JOINT left_ee
										{
											OFFSET	-80.8	-5.10001	12.1
											CHANNELS 3  Xrotation Yrotation Zrotation
											End Site
											{
												OFFSET	1	0	0
											}
										}
									}
								}
							}
						}
					}
					JOINT right_clavicle
					{
						OFFSET	43.2	22.4	-70.8
						CHANNELS 3  Xrotation Yrotation Zrotation
						JOINT right_shoulder
						{
							OFFSET	93.9	-5.79999	48.7
							CHANNELS 3  Xrotation Yrotation Zrotation
							JOINT right_elbow
							{
								OFFSET	291.4	-30.8	15.2
								CHANNELS 3  Xrotation Yrotation Zrotation
								JOINT right_lowarm_twist
								{
									OFFSET	110.7	-3.89999	13.6
									CHANNELS 3  Xrotation Yrotation Zrotation
									JOINT right_hand
									{
										OFFSET	110.7	-3.89999	13.6
										CHANNELS 3  Xrotation Yrotation Zrotation
										JOINT right_ee
										{
											OFFSET	80.8	-5.10001	12.1
											CHANNELS 3  Xrotation Yrotation Zrotation
											End Site
											{
												OFFSET	1	0	0
											}
										}
									}
								}
							}
						}
					}
				}
			}
		}
	}
	JOINT left_hip
	{
		OFFSET	-82.8	-127.5	0.300001
		CHANNELS 3  Xrotation Yrotation Zrotation
		JOINT left_knee
		{
			OFFSET	-28.2	-396.7	2.2
			CHANNELS 3  Xrotation Yrotation Zrotation
			JOINT left_ankle
			{
				OFFSET	-11.7	-411.3	35.4
				CHANNELS 3  Xrotation Yrotation Zrotation
				JOINT left_toes
				{
					OFFSET	0	-60	-88.6
					CHANNELS 3  Xrotation Yrotation Zrotation
					JOINT left_foot_ee
					{
						OFFSET	-22.5	-16.5	-42.2
						CHANNELS 3  Xrotation Yrotation Zrotation
						End Site
						{
							OFFSET	1	0	0
						}
					}
				}
			}
		}
	}
	JOINT right_hip
	{
		OFFSET	82.8	-127.5	0.300001
		CHANNELS 3  Xrotation Yrotation Zrotation
		JOINT right_knee
		{
			OFFSET	28.2	-396.7	2.2
			CHANNELS 3  Xrotation Yrotation Zrotation
			JOINT right_ankle
			{
				OFFSET	11.7	-411.3	35.4
				CHANNELS 3  Xrotation Yrotation Zrotation
				JOINT right_toes
				{
					OFFSET	0	-60	-88.6
					CHANNELS 3  Xrotation Yrotation Zrotation
					JOINT right_foot_ee
					{
						OFFSET	22.5	-16.5	-42.2
						CHANNELS 3  Xrotation Yrotation Zrotation
						End Site
						{
							OFFSET	1	0	0
						}
					}
				}
			}
		}
	}
}
MOTION
Frames: 12
Frame Time: 0.02
2772.42 687.272 -610.851 178.86 -81.4415 -177.999 0.799827 -0.682135 -3.19775 0.805389 -0.477381 -3.23462 0.834316 0.165508 -3.26544 0.81961 -0.352005 -3.25064 -18.2815 21.4797 7.77094 -20.1181 37.2429 16.3938 -0.0 0.0 -0.0 5.53781 9.7794 10.7889 -4.015 -34.4401 60.1925 3.62952 -60.9021 2.13424 -25.1748 -1.52949 2.80599 0.127665 11.1745 5.43239 -0.0 0.0 -0.0 1.52261 1.67474 -2.77718 -30.0658 38.4763 -59.4078 0.498482 13.8709 -0.0606364 -19.6269 1.08819 -2.24915 2.40524 7.64356 -13.1055 0.0 0.0 0.0 -5.09584 14.514 -0.675614 -31.1941 -0.00351851 4.7285 41.5244 12.2157 -5.02919 -31.8703 0.0 0.0 -0.0 0.0 -0.0 36.724 14.6598 -6.11576 -7.55088 -0.236452 -1.13388 -3.05308 19.7084 -0.510597 -34.4563 0.0 0.0 0.0 0.0 0.0 
2791.33 686.248 -606.52 178.539 -81.616 -178.646 0.861873 -0.615456 -3.17159 0.867374 -0.412499 -3.20428 0.892218 0.220025 -3.2232 0.877841 -0.29151 -3.21753 -17.9124 21.5632 7.94626 -19.6697 37.2481 16.426 -0.0 0.0 -0.0 5.43105 8.03376 10.6057 -5.29417 -34.1808 60.6549 3.27448 -58.3333 1.82789 -24.4032 -1.4649 2.73112 0.117001 11.6311 5.54599 -0.0 0.0 -0.0 1.81225 2.18043 -3.29809 -29.8747 38.9981 -58.868 0.530702 14.7296 -0.0685951 -19.7937 1.10066 -2.2665 2.43384 7.0317 -13.5689 0.0 0.0 0.0 -5.53134 13.7268 -0.621209 -32.4699 -0.0584364 4.91658 41.1419 11.7047 -4.99087 -32.8387 0.0 0.0 -0.0 0.0 -0.0 36.4864 14.7448 -5.91138 -9.11165 -0.266566 -1.37148 -5.02174 19.708 -0.843556 -34.2141 0.0 0.0 0.0 0.0 0.0 
2806.57 686.196 -602.386 177.466 -81.7837 -179.854 0.853172 -0.6205 -3.22195 0.858851 -0.414333 -3.25485 0.884228 0.228549 -3.27313 0.869397 -0.290966 -3.26818 -18.1219 21.6038 8.03353 -19.9224 37.3179 16.615 -0.0 0.0 -0.0 5.52864 7.24468 10.7824 -7.32903 -34.266 60.633 3.15944 -57.4114 1.73046 -24.2122 -1.44907 2.71245 0.134045 12.0712 5.82907 -0.0 0.0 -0.0 2.23138 3.028 -4.05026 -29.9304 39.5992 -57.7589 0.525292 14.5859 -0.0672263 -19.6511 1.09 -2.25167 2.30914 6.25142 -13.0396 0.0 0.0 0.0 -5.74604 13.7536 -1.11253 -32.9266 -0.0791118 4.98361 40.706 11.105 -4.94732 -34.2292 0.0 0.0 -0.0 0.0 -0.0 36.4439 14.9582 -5.80701 -11.0982 -0.295513 -1.67491 -3.26708 20.5878 -0.551273 -33.6719 0.0 0.0 0.0 0.0 0.0 
2838.1 685.659 -595.757 173.128 -81.5726 175.333 0.831619 -0.545308 -3.04272 0.836701 -0.35068 -3.07122 0.857126 0.256673 -3.08049 0.84396 -0.232817 -3.08238 -14.4173 21.8393 6.06823 -15.7139 38.1793 13.4127 -0.0 0.0 -0.0 5.35161 5.88985 10.4518 -10.4951 -34.3235 60.8584 2.86586 -54.8289 1.48666 -23.5014 -1.3907 2.64252 0.198011 11.9822 6.20102 -0.0 0.0 -0.0 2.50574 3.27406 -4.57319 -30.8553 40.0931 -56.5726 0.559147 15.4821 -0.0760082 -20.166 1.12867 -2.30508 2.32448 5.52246 -13.4564 0.0 0.0 0.0 -7.14826 13.4199 -1.24308 -35.1317 -0.186444 5.30486 40.105 10.8201 -4.89231 -34.9841 0.0 0.0 -0.0 0.0 -0.0 34.9028 14.8322 -5.13121 -12.5437 -0.309955 -1.89623 -4.83503 21.8988 -0.829549 -33.112 0.0 0.0 0.0 0.0 0.0 
2863.83 688.033 -589.088 172.547 -81.1421 174.851 0.92864 -0.443176 -2.98262 0.933553 -0.252574 -3.00475 0.948129 0.335243 -2.99666 0.935626 -0.142009 -3.01199 -14.1396 21.7419 5.56638 -15.4097 38.2353 12.8071 -0.0 0.0 -0.0 5.44879 5.68551 10.6299 -13.2099 -31.5326 61.1743 2.78021 -54.0069 1.41701 -22.3619 -1.29897 2.52895 -0.00593155 13.1507 5.37113 -0.0 0.0 -0.0 2.55718 2.30606 -4.75116 -29.7368 41.0417 -56.6807 0.517872 14.3885 -0.06537 -20.8979 1.18448 -2.38042 2.61389 6.5585 -15.0268 0.0 0.0 0.0 -8.94333 12.7928 -1.24567 -35.3278 -0.196587 5.33323 35.7182 7.06295 -4.46931 -37.2438 0.0 0.0 -0.0 0.0 -0.0 33.8728 13.7317 -6.04597 -14.6953 -0.3211 -2.22615 -6.30003 17.9136 -1.04392 -32.5049 0.0 0.0 0.0 0.0 0.0 
2890.24 687.688 -585.112 166.263 -81.035 168.635 0.938136 -0.515762 -2.79909 0.942432 -0.336676 -2.82621 0.960304 0.217352 -2.83787 0.949142 -0.233379 -2.8366 -12.0233 21.7778 4.72808 -12.9329 38.4072 11.176 -0.0 0.0 -0.0 5.21957 6.35821 10.213 -15.3571 -34.1408 61.8195 2.43894 -50.3779 1.14724 -23.1134 -1.35921 2.60405 0.2151 12.8881 6.66486 -0.0 0.0 -0.0 2.98494 4.23983 -5.45237 -31.4404 41.1411 -55.9157 0.580898 16.0538 -0.081919 -20.7801 1.17543 -2.36834 2.40103 5.55048 -13.9758 0.0 0.0 0.0 -8.74338 13.106 -2.09832 -38.1136 -0.351136 5.73238 37.4355 8.47096 -4.63591 -37.1239 0.0 0.0 -0.0 0.0 -0.0 32.6686 13.5757 -5.67807 -16.1066 -0.32168 -2.44268 -6.93631 21.9172 -1.19539 -32.4142 0.0 0.0 0.0 0.0 0.0 
2917.64 691.408 -579.266 162.854 -79.687 165.207 0.953988 -0.308245 -2.54925 0.957592 -0.14546 -2.56368 0.964981 0.354017 -2.5433 0.955959 -0.0519559 -2.56728 -12.1328 21.7883 5.26496 -13.0256 38.1132 11.7128 -0.0 0.0 -0.0 4.89412 6.39185 9.61725 -17.6398 -32.9768 62.3886 2.23135 -47.858 0.990249 -22.5283 -1.31222 2.54564 0.178731 13.4196 6.64242 -0.0 0.0 -0.0 3.34511 4.8404 -6.13071 -31.4612 41.5527 -55.4316 0.615204 16.9489 -0.0916636 -20.9861 1.19126 -2.38944 2.43474 5.45293 -14.2516 0.0 0.0 0.0 -8.11693 12.8248 -2.5603 -39.9375 -0.462792 5.98953 35.8978 8.6366 -4.4916 -38.0951 0.0 0.0 -0.0 0.0 -0.0 30.7927 12.8965 -6.19251 -18.0095 -0.314019 -2.73452 -5.19603 22.4429 -0.897238 -31.1879 0.0 0.0 0.0 0.0 0.0 
2936.5 698.341 -570.809 163.082 -78.7557 164.698 0.989011 -0.240095 -2.30606 0.991965 -0.0929079 -2.31666 0.996382 0.356454 -2.29097 0.989058 -0.00973419 -2.3185 -10.3632 21.6643 3.69561 -10.9929 38.5191 9.50356 -0.0 0.0 -0.0 4.68952 6.7279 9.24994 -19.5689 -33.6248 62.7166 1.89706 -43.2163 0.751468 -22.6559 -1.32242 2.55843 0.30979 13.9417 7.67156 -0.0 0.0 -0.0 3.64871 5.38743 -6.70465 -31.0403 42.0008 -55.1908 0.606088 16.7119 -0.0890241 -21.4016 1.22343 -2.43184 2.45897 5.3624 -14.4588 0.0 0.0 0.0 -7.85286 12.6611 -2.59078 -41.8641 -0.589602 6.25725 35.6236 7.20168 -4.46053 -38.774 0.0 0.0 -0.0 0.0 -0.0 29.6992 12.6593 -6.23394 -17.8594 -0.314976 -2.7115 -8.4785 21.619 -1.46074 -31.4957 0.0 0.0 0.0 0.0 0.0 
2954.94 705.963 -566.113 162.77 -77.5649 164.32 0.941899 -0.0088293 -1.94876 0.944005 0.115169 -1.94537 0.940443 0.490777 -1.88599 0.935528 0.18682 -1.9398 -10.2554 21.6704 3.59294 -10.8695 38.5761 9.36593 -0.0 0.0 -0.0 4.46732 8.50703 8.88447 -21.3819 -32.7571 62.7713 1.80914 -41.8626 0.692025 -22.4101 -1.3028 2.53379 0.245365 14.5432 7.49745 -0.0 0.0 -0.0 3.92112 7.05285 -7.14652 -29.8464 43.1546 -55.0839 0.654914 17.9745 -0.10358 -21.6562 1.2433 -2.45771 2.50095 5.51075 -14.6881 0.0 0.0 0.0 -6.73169 12.3534 -3.34463 -44.3292 -0.764907 6.59342 35.5586 6.46169 -4.45296 -39.8497 0.0 0.0 -0.0 0.0 -0.0 27.6962 12.8311 -6.94745 -17.8202 -0.315215 -2.7055 -5.41963 21.5072 -0.927296 -31.0121 0.0 0.0 0.0 0.0 0.0 
2971.17 713.262 -557.725 164.799 -76.6124 165.891 1.03037 0.172662 -1.65491 1.03185 0.277604 -1.64057 1.024 0.588673 -1.5563 1.02078 0.335531 -1.62971 -9.27797 21.5486 2.94685 -9.7194 38.5758 8.32604 -0.0 0.0 -0.0 4.22066 7.88497 8.43015 -22.8479 -32.2162 63.033 1.65466 -39.3373 0.59147 -22.5011 -1.31005 2.54292 0.281437 14.4523 7.68905 -0.0 0.0 -0.0 4.26517 6.79204 -7.86612 -28.5706 43.4859 -55.3667 0.64555 17.7337 -0.100709 -21.8232 1.2564 -2.47463 2.48304 5.35533 -14.6294 0.0 0.0 0.0 -5.89852 11.9829 -3.79094 -43.6047 -0.711879 6.49539 36.1343 5.99968 -4.50746 -39.3155 0.0 0.0 -0.0 0.0 -0.0 26.9782 11.9904 -6.94273 -18.0766 -0.313573 -2.7448 -8.83804 21.2613 -1.51808 -31.8357 0.0 0.0 0.0 0.0 0.0 
2985.94 713.569 -554.554 166.989 -74.4051 168.023 1.11656 0.324518 -1.44713 1.11762 0.415936 -1.42356 1.10724 0.680664 -1.31767 1.10512 0.464042 -1.40862 -9.84931 21.3956 3.28152 -10.3779 38.1771 8.82424 -0.0 0.0 -0.0 4.11343 8.74019 8.26179 -24.2417 -30.1055 63.4949 1.47142 -36.086 0.479339 -21.997 -1.27007 2.4922 0.555315 15.0655 9.64244 -0.0 0.0 -0.0 4.52674 8.51847 -8.29584 -27.6914 43.8523 -55.2475 0.678631 18.5814 -0.111018 -22.1989 1.28604 -2.51256 2.64173 5.23147 -15.7908 0.0 0.0 0.0 -4.67412 9.11264 -3.35969 -45.205 -0.830662 6.71103 36.1704 4.32096 -4.51151 -39.6216 0.0 0.0 -0.0 0.0 -0.0 25.3285 11.4824 -7.90966 -16.9013 -0.31966 -2.56457 -4.98052 18.8143 -0.82969 -30.602 0.0 0.0 0.0 0.0 0.0 
2998.29 716.825 -548.117 169.027 -75.1175 169.43 1.30449 0.128843 -1.1234 1.30517 0.200062 -1.11292 1.30128 0.405695 -1.05549 1.2998 0.23392 -1.1063 -9.55614 21.1883 2.4564 -10.0472 38.2746 7.8656 -0.0 0.0 -0.0 3.86351 8.76791 7.82066 -26.5282 -31.1348 63.0488 1.34922 -33.7556 0.409371 -22.2076 -1.28672 2.51343 0.57548 14.9859 9.73992 -0.0 0.0 -0.0 4.68112 8.46494 -8.61819 -25.7968 44.5417 -54.8307 0.78514 21.2527 -0.147311 -22.0179 1.27172 -2.49431 2.4778 4.84553 -14.8089 0.0 0.0 0.0 -4.07886 9.5159 -2.98079 -44.1193 -0.749416 6.56509 37.1706 3.87194 -4.60578 -39.3877 0.0 0.0 -0.0 0.0 -0.0 25.1975 11.1435 -7.86269 -16.8845 -0.319719 -2.56201 -6.92141 17.4988 -1.14413 -31.3976 0.0 0.0 0.0 0.0 0.0 
